<?xml version="1.0" encoding="UTF-8"?>
<svg id="Layer_1" data-name="Layer 1" xmlns="http://www.w3.org/2000/svg" viewBox="0 0 600 600">
  <defs>
    <style>
      .cls-1 {
        fill: #221f20;
      }
    </style>
  </defs>
  <g>
    <path class="cls-1" d="M299.79,210.77c15.7-15.31,35.19-23.84,57.13-24.95,3.41-35.93,6-106.99-20.06-150.7-6.16-10.34-36.86-10.12-36.86-10.12,0,0-30.68-.24-36.86,10.12-26.07,43.73-23.48,114.81-20.06,150.73,21.77,1.2,41.11,9.71,56.71,24.92Z"/>
    <path class="cls-1" d="M449.23,238.09c10.53,21.21,13.46,46.01,8.84,69.23,31.66-35.08,70.92-92.97,58.65-154.92-2.72-13.44-12.26-25.14-28.42-34.89-3.11-1.88-7.21.23-7.21,3.69,0,44.43-18.92,80.04-38.75,105.17,2.54,3.69,4.84,7.6,6.89,11.73Z"/>
    <path class="cls-1" d="M367.31,185.84c5,.27,10.11.91,15.26,1.92l.09.02c18.67,3.73,34.94,12.15,47.71,24.45,1.16-2.65,2.31-5.37,3.42-8.15,13.63-34.1,30.09-81.35,7.42-127.04-8.4-15.77-28.09-25.12-58.58-27.81-3.19-.28-10.95-.51-9.99,2.34,22.03,64.9,7.65,109.15-5.33,134.26Z"/>
    <path class="cls-1" d="M561.96,236.79c.43-10.95-2.92-21.6-10.21-32.31-2.12-3.13-7.42-2.55-8.4,1.04-15.65,56.82-59.13,95.79-89.51,117.04-1.45,4.03-3.15,7.98-5.1,11.8-10.84,21.26-32.56,41.21-60.06,66.47-2.93,2.69-5.92,5.44-8.95,8.24,20.74,1.91,40.61,4.53,58.78,7.83,23.5,4.26,39.72,8.79,50.19,12.45-7.76,6.83-21.96,15.93-45.61,24.95-41.49,15.83-94.98,25.28-143.09,25.28s-101.6-9.45-143.08-25.28c-23.65-9.02-37.85-18.12-45.61-24.95,10.46-3.67,26.69-8.19,50.19-12.45,18.06-3.27,37.8-5.89,58.41-7.8-2.91-2.69-5.78-5.33-8.6-7.92-27.63-25.42-49.46-45.5-60.2-66.92-1.93-3.79-3.6-7.73-5.04-11.77-30.37-21.26-73.78-60.21-89.41-116.98-.98-3.59-6.28-4.17-8.4-1.04-7.3,10.7-10.64,21.35-10.21,32.31,1.36,34.68,13.7,79.47,58.05,117,16.3,13.79,34.05,26.19,49.75,36.08-55.6,11.9-91.15,29.02-91.15,44.39,0,10.09,4.52,20.55,7.59,26.46,1.49,2.86,2.62,5.88,3.19,9.03,2.78,15.49,15.57,27.19,30.92,27.19.13,0,.25,0,.38-.01.93.67,5.45,3.75,10.62,7.05,5.18,3.3,9.17,7.97,11.85,13.33,5.3,10.58,15.75,17.78,27.8,17.78,1.78,0,3.98-.43,6.17-1.01,6.84-1.83,14.1-1.64,20.8.63.28.09.56.19.84.28,6.77,2.28,12.53,6.6,16.71,12.18,5.77,7.7,14.65,12.64,24.62,12.64,5.09,0,9.9-1.29,14.15-3.58,6.29-3.38,13.64-4.5,20.79-3.56.36.05.73.1,1.09.14,8.18,1.07,15.59,5,21.11,10.87,6.53,6.95,16.06,11.32,26.69,11.32s20.13-4.36,26.65-11.29c5.52-5.86,12.91-9.8,21.09-10.87.39-.05.78-.1,1.18-.15,7.15-.95,14.51.18,20.81,3.56,4.24,2.27,9.03,3.55,14.1,3.55,9.93,0,18.79-4.9,24.56-12.55,4.22-5.6,10.02-9.92,16.84-12.2.11-.04.22-.07.33-.11,6.56-2.2,13.63-2.34,20.37-.69,2.26.55,4.62.84,7.04.84,12.04,0,22.5-7.2,27.8-17.78,2.7-5.39,6.72-10.09,11.92-13.42,4.96-3.17,9.67-6.32,10.55-6.95.13,0,.25.01.38.01,15.23,0,27.93-11.51,30.85-26.81.62-3.24,1.76-6.38,3.35-9.31,3.06-5.6,7.5-15.57,7.5-26.57,0-15.37-35.55-32.48-91.15-44.38,15.7-9.89,33.45-22.29,49.75-36.08,44.35-37.53,56.69-82.31,58.05-117Z"/>
    <path class="cls-1" d="M150.58,237.89c2.05-4.13,4.36-8.05,6.9-11.74-19.76-25.12-38.58-60.65-38.58-104.95,0-3.45-4.09-5.56-7.21-3.69-16.16,9.75-25.7,21.45-28.42,34.89-12.27,61.94,26.98,119.82,58.64,154.91-4.58-23.34-1.71-48.54,8.66-69.41Z"/>
    <path class="cls-1" d="M169.53,211.98c12.71-12.17,28.86-20.51,47.41-24.21l.09-.02c6-1.18,11.95-1.85,17.73-2.03-12.52-28.96-29.16-81.72-12.38-131.17.96-2.85-1.81-5.62-5-5.34-30.49,2.7-50.18,12.05-58.58,27.81-22.67,45.69-6.21,92.94,7.42,127.04,1.08,2.7,2.18,5.33,3.31,7.9Z"/>
  </g>
  <path class="cls-1" d="M375.95,216.16c-58.52-11.48-76.08,45.61-76.08,45.61,0,0-17.56-57.09-76.08-45.61-52.98,10.57-64.68,69.47-45.89,106.32,15.09,30.2,67.45,65.24,121.97,125.95,54.52-60.71,106.87-95.75,122.27-125.95,18.79-36.85,6.78-95.75-46.2-106.32Z"/>
</svg>